<svg width="14" height="12" fill="none" xmlns="http://www.w3.org/2000/svg"><path d="M2.854 3.868c-.118.301-.141.598-.071.897h3.184c.07-.299.046-.596-.071-.897a13.779 13.779 0 0 0-3.042 0z" fill="#000"/><path d="M2.324 3.406c.05-.101.148-.17.26-.184a14.46 14.46 0 0 1 3.583 0c.112.014.209.083.26.184.225.45.3.906.227 1.36h.693a2.2 2.2 0 0 1 .227-1.36c.05-.101.148-.17.26-.184a14.46 14.46 0 0 1 3.583 0 .337.337 0 0 1 .26.184c.225.45.3.906.227 1.36h.884V1.29a15.559 15.559 0 0 0-11.576 0v3.474h.885a2.2 2.2 0 0 1 .227-1.36z" fill="#000"/><path d="M8.104 3.868c-.118.301-.141.598-.071.897h3.184c.07-.299.046-.596-.071-.897a13.778 13.778 0 0 0-3.042 0zM.061 9.533v1.956a.337.337 0 1 0 .674 0V9.612H.48a1.15 1.15 0 0 1-.42-.08zM.481 9.561H13.52A.481.481 0 0 0 14 9.08V6.542a.481.481 0 0 0-.481-.481S9.579 5 7 5C4.42 5 .481 6.061.481 6.061A.481.481 0 0 0 0 6.542V9.08c0 .266.215.481.481.481zM13.519 9.612h-.253v1.877a.337.337 0 0 0 .673 0V9.533c-.13.05-.272.08-.42.08z" fill="#000"/></svg>