<svg width="14" height="12" fill="none" xmlns="http://www.w3.org/2000/svg"><path d="M13.507 6.074h-.32V1.625c0-.199-.12-.379-.305-.455A15.296 15.296 0 0 0 7 0C4.971 0 2.992.394 1.118 1.17a.493.493 0 0 0-.305.456v4.448h-.32A.493.493 0 0 0 0 6.567v4.82a.493.493 0 0 0 .986 0v-1.073h12.028v1.072a.493.493 0 0 0 .986 0V6.567a.493.493 0 0 0-.493-.493zM1.799 1.96a14.28 14.28 0 0 1 10.402 0v4.115h-.487c.103-.493.035-1.87-.206-2.352a.493.493 0 0 0-.38-.269 13.62 13.62 0 0 0-3.376 0 .493.493 0 0 0-.38.269c-.24.482-.309 1.859-.206 2.352h-.332c.103-.493.035-1.87-.206-2.352a.493.493 0 0 0-.38-.269c-1.12-.14-2.256-.14-3.376 0a.493.493 0 0 0-.38.269c-.24.482-.31 1.859-.206 2.352h-.487V1.96zm6.36 2.44a12.634 12.634 0 0 1 2.563 0c.074.24.074 1.349 0 1.588-.852.087-1.712.087-2.564 0-.074-.24-.074-1.348 0-1.588zm-4.881 0a12.634 12.634 0 0 1 2.564 0c.074.24.074 1.349 0 1.588-.852.087-1.712.087-2.564 0-.074-.24-.074-1.348 0-1.588zM.986 7.06h12.028v2.268H.986V7.06z" fill="#000"/></svg>