<svg xmlns="http://www.w3.org/2000/svg" xmlns:xlink="http://www.w3.org/1999/xlink" style="isolation:isolate" viewBox="0 0 24 24" width="24" height="24"><path d=" M 4.516 21.928 L 4.516 1.939 L 10.736 1.939 L 10.736 1.939 Q 14.988 1.939 16.909 3.149 L 16.909 3.149 L 16.909 3.149 Q 18.83 4.359 18.83 6.998 L 18.83 6.998 L 18.83 6.998 Q 18.83 8.789 17.989 9.938 L 17.989 9.938 L 17.989 9.938 Q 17.148 11.086 15.754 11.318 L 15.754 11.318 L 15.754 11.455 L 15.754 11.455 Q 17.654 11.879 18.495 13.041 L 18.495 13.041 L 18.495 13.041 Q 19.336 14.203 19.336 16.131 L 19.336 16.131 L 19.336 16.131 Q 19.336 18.865 17.36 20.396 L 17.36 20.396 L 17.36 20.396 Q 15.385 21.928 11.994 21.928 L 11.994 21.928 L 4.516 21.928 L 4.516 21.928 Z  M 8.754 5.412 L 8.754 9.855 L 11.215 9.855 L 11.215 9.855 Q 12.938 9.855 13.71 9.322 L 13.71 9.322 L 13.71 9.322 Q 14.482 8.789 14.482 7.559 L 14.482 7.559 L 14.482 7.559 Q 14.482 6.41 13.642 5.911 L 13.642 5.911 L 13.642 5.911 Q 12.801 5.412 10.982 5.412 L 10.982 5.412 L 8.754 5.412 L 8.754 5.412 Z  M 11.379 13.219 L 8.754 13.219 L 8.754 18.428 L 11.516 18.428 L 11.516 18.428 Q 13.266 18.428 14.1 17.758 L 14.1 17.758 L 14.1 17.758 Q 14.934 17.088 14.934 15.707 L 14.934 15.707 L 14.934 15.707 Q 14.934 13.219 11.379 13.219 L 11.379 13.219 L 11.379 13.219 Z " /></svg>
