<svg width="12" height="12" fill="none" xmlns="http://www.w3.org/2000/svg"><path d="M10.921.397a.895.895 0 0 0-.416-.326.878.878 0 0 0-.35-.07V0H1.845a.878.878 0 0 0-.35.071.894.894 0 0 0-.415.326.842.842 0 0 0-.155.491v10.224c0 .18.051.343.154.492a.894.894 0 0 0 .417.325.946.946 0 0 0 1.007-.19L6 8.374l3.498 3.363a.944.944 0 0 0 .658.254.894.894 0 0 0 .349-.063.894.894 0 0 0 .416-.326.841.841 0 0 0 .155-.491V.888a.843.843 0 0 0-.155-.491zm-.86 10.469l-3.355-3.22L6 6.972l-.706.674-3.355 3.22v-9.85h8.122v9.85z" fill="#000"/></svg>