<svg width="16" height="16" fill="none" xmlns="http://www.w3.org/2000/svg"><path d="M13.43 1.078H2.554A2.064 2.064 0 0 0 .492 3.14v6.656c0 1.135.921 2.058 2.055 2.062v3.02l4.34-3.02h6.543a2.065 2.065 0 0 0 2.062-2.062V3.14a2.065 2.065 0 0 0-2.062-2.062zm1.183 8.718c0 .652-.53 1.183-1.183 1.183H6.612l-3.186 2.217V10.98h-.872a1.185 1.185 0 0 1-1.183-1.183V3.14c0-.652.53-1.183 1.183-1.183H13.43c.652 0 1.183.53 1.183 1.183v6.656z" fill="#000"/><path d="M4.507 4.184h6.971v.878h-6.97v-.878zM4.507 6.059h6.971v.878h-6.97V6.06zM4.507 7.934h6.971v.879h-6.97v-.88z" fill="#000"/></svg>