<svg width="14" height="14" fill="none" xmlns="http://www.w3.org/2000/svg"><path d="M2.498 5.882c.155.095.479.207.73.207.256 0 .362-.09.362-.229 0-.14-.084-.206-.401-.312-.563-.19-.78-.496-.775-.82 0-.506.435-.89 1.109-.89.317 0 .602.072.769.155l-.15.585a1.335 1.335 0 0 0-.591-.156c-.207 0-.324.084-.324.223 0 .128.106.195.44.312.519.178.736.44.742.842 0 .507-.401.88-1.182.88-.356 0-.674-.078-.88-.19l.15-.607zM4.92 4.768c0-.34-.01-.63-.022-.87h.714l.039.368h.016a.945.945 0 0 1 .825-.429c.351 0 .63.178.747.463h.01c.101-.14.224-.251.352-.329a.984.984 0 0 1 .518-.134c.524 0 .92.368.92 1.181v1.605h-.825V5.141c0-.396-.129-.624-.401-.624a.414.414 0 0 0-.39.295.71.71 0 0 0-.034.218v1.593h-.824V5.096c0-.345-.123-.58-.39-.58-.218 0-.346.168-.396.308a.563.563 0 0 0-.034.211v1.588h-.824V4.768zM9.707 5.882c.155.095.479.207.73.207.256 0 .362-.09.362-.229 0-.14-.084-.206-.401-.312-.563-.19-.78-.496-.775-.82 0-.506.435-.89 1.109-.89.317 0 .601.072.769.155l-.15.585a1.335 1.335 0 0 0-.591-.156c-.207 0-.324.084-.324.223 0 .128.106.195.44.312.519.178.736.44.742.842 0 .507-.401.88-1.182.88-.356 0-.674-.078-.88-.19l.15-.607z" fill="#000"/><path d="M10.97 14l-4.379-3.593H1.45c-.798 0-1.447-.66-1.447-1.472V1.472C.002.66.652 0 1.45 0h11.102c.798 0 1.447.66 1.447 1.472v7.463c0 .812-.649 1.472-1.447 1.472H10.97V14zM1.449.875a.586.586 0 0 0-.572.597v7.463c0 .33.257.598.572.598h5.455l3.191 2.618V9.533h2.456a.586.586 0 0 0 .572-.598V1.472a.586.586 0 0 0-.572-.597H1.45z" fill="#000"/></svg>