<svg width="12" height="12" fill="none" xmlns="http://www.w3.org/2000/svg"><path d="M11.386 4.741l-.842-.143a4.759 4.759 0 0 0-.339-.817l.496-.694a.739.739 0 0 0-.08-.955l-.747-.747a.736.736 0 0 0-.952-.08l-.697.496a4.706 4.706 0 0 0-.848-.349L7.237.62a.74.74 0 0 0-.732-.619H5.45a.74.74 0 0 0-.732.62l-.146.851a4.64 4.64 0 0 0-.814.344l-.69-.496a.736.736 0 0 0-.955.08l-.75.747a.742.742 0 0 0-.08.955l.502.704a4.646 4.646 0 0 0-.334.82l-.832.14A.74.74 0 0 0 0 5.498v1.056c0 .363.26.671.62.732l.851.145c.088.28.204.554.344.815l-.494.687c-.21.295-.178.699.08.955l.747.747a.736.736 0 0 0 .953.08l.704-.501c.253.132.52.24.792.325l.14.843A.74.74 0 0 0 5.47 12h1.058a.74.74 0 0 0 .732-.62l.143-.841c.283-.088.556-.201.817-.339l.694.496a.736.736 0 0 0 .955-.08l.747-.747a.742.742 0 0 0 .08-.955l-.496-.697c.138-.263.253-.536.339-.817l.842-.14A.74.74 0 0 0 12 6.529V5.473a.732.732 0 0 0-.614-.732zm-.058 1.788c0 .032-.022.06-.055.065l-1.053.175a.337.337 0 0 0-.27.248c-.096.369-.241.722-.437 1.05a.339.339 0 0 0 .015.37l.62.872a.068.068 0 0 1-.008.085l-.747.747a.064.064 0 0 1-.048.02.062.062 0 0 1-.037-.013l-.87-.619a.339.339 0 0 0-.369-.015c-.328.196-.682.341-1.05.436a.333.333 0 0 0-.248.271l-.178 1.053a.065.065 0 0 1-.065.055H5.472a.065.065 0 0 1-.065-.055l-.175-1.053a.337.337 0 0 0-.249-.27 4.167 4.167 0 0 1-1.027-.422.347.347 0 0 0-.17-.045.33.33 0 0 0-.196.063l-.878.624a.075.075 0 0 1-.037.013.067.067 0 0 1-.048-.02l-.747-.748a.068.068 0 0 1-.007-.085l.616-.865a.343.343 0 0 0 .015-.37 3.975 3.975 0 0 1-.44-1.048.343.343 0 0 0-.272-.249l-1.06-.18a.065.065 0 0 1-.055-.065V5.498c0-.032.022-.06.055-.065l1.045-.175a.339.339 0 0 0 .274-.251c.092-.368.235-.724.428-1.053a.335.335 0 0 0-.017-.366l-.625-.877a.068.068 0 0 1 .008-.085l.747-.747a.064.064 0 0 1 .048-.02c.015 0 .027.005.037.012l.865.617c.11.077.256.082.371.015.326-.196.68-.346 1.048-.441a.343.343 0 0 0 .248-.271L5.39.73a.065.065 0 0 1 .066-.056H6.51c.033 0 .06.023.065.055l.176 1.046c.022.133.12.24.25.273.379.095.74.243 1.076.441a.339.339 0 0 0 .368-.015l.865-.622a.075.075 0 0 1 .038-.012c.01 0 .03.002.047.02l.747.747a.068.068 0 0 1 .008.085l-.62.87a.339.339 0 0 0-.014.369c.195.328.34.681.436 1.05.032.13.14.228.27.248l1.053.178a.065.065 0 0 1 .056.065V6.53h-.003z" fill="#000"/><path d="M6.001 3.41a2.591 2.591 0 0 0-2.59 2.589c0 1.429 1.161 2.59 2.59 2.59 1.429 0 2.59-1.161 2.59-2.59 0-1.43-1.161-2.59-2.59-2.59zm0 4.501A1.914 1.914 0 0 1 4.088 6a1.914 1.914 0 0 1 3.825 0A1.914 1.914 0 0 1 6.002 7.91z" fill="#000"/></svg>