<svg width="12" height="12" viewBox="0 0 12 12" fill="none" xmlns="http://www.w3.org/2000/svg">
<path d="M11.8818 0.360679C11.7978 0.275911 11.6808 0.232113 11.5621 0.24084L9.68904 0.37781C9.46423 0.394255 9.2953 0.58981 9.31175 0.814659C9.32819 1.03951 9.52383 1.20767 9.7486 1.19195L10.5269 1.13502L7.78504 3.8804L4.59631 1.18007C4.43425 1.04278 4.19405 1.05276 4.04391 1.2029L0.119545 5.12731C-0.0398485 5.2867 -0.0398485 5.54516 0.119545 5.70456C0.199263 5.78424 0.303707 5.82411 0.408152 5.82411C0.512596 5.82411 0.61704 5.78424 0.696758 5.70456L4.35542 2.04585L7.54431 4.74634C7.70641 4.88371 7.94678 4.87361 8.09688 4.72331L11.0932 1.7231L11.0313 2.47054C11.0127 2.69518 11.1797 2.89236 11.4044 2.91098C11.4159 2.91195 11.4272 2.91244 11.4385 2.91244C11.6487 2.9124 11.8272 2.7511 11.8448 2.53793L11.9985 0.681608C12.0084 0.562699 11.9658 0.445446 11.8818 0.360679Z" fill="black"/>
<path d="M3.64081 5.03885C3.48833 4.97574 3.31273 5.01065 3.19597 5.12734L1.49993 6.82334C1.4234 6.8999 1.38037 7.0037 1.38037 7.11194V11.3521C1.38037 11.5775 1.56312 11.7603 1.78853 11.7603H3.48457C3.70998 11.7603 3.89273 11.5775 3.89273 11.3521V5.41594C3.89273 5.25085 3.7933 5.102 3.64081 5.03885ZM3.07641 10.9439H2.19673V7.28103L3.07645 6.40132V10.9439H3.07641Z" fill="black"/>
<path d="M5.46927 5.12735C5.35254 5.01062 5.17703 4.97575 5.02442 5.03886C4.87194 5.10205 4.77246 5.25086 4.77246 5.41599V11.3522C4.77246 11.5776 4.95521 11.7603 5.18062 11.7603H6.87667C7.10208 11.7603 7.28483 11.5776 7.28483 11.3522V7.11204C7.28483 7.0038 7.24184 6.9 7.16527 6.82343L5.46927 5.12735ZM6.4685 10.944H5.58879V6.40133L6.4685 7.28109V10.944Z" fill="black"/>
<path d="M10.425 5.03885C10.2724 4.97574 10.0969 5.01065 9.98015 5.12734L8.28411 6.82342C8.20758 6.89999 8.16455 7.00379 8.16455 7.11203V11.3522C8.16455 11.5776 8.3473 11.7603 8.57271 11.7603H10.2688C10.4942 11.7603 10.6769 11.5776 10.6769 11.3522V5.41599C10.677 5.25085 10.5775 5.10201 10.425 5.03885ZM9.86063 10.944H8.98091V7.28108L9.86063 6.40132V10.944Z" fill="black"/>
</svg>
