<!-- <svg width="14" height="12" viewBox="0 0 14 12" fill="none" xmlns="http://www.w3.org/2000/svg">
<path d="M0.609819 7.10499L6.99989 0.714919L11.7499 11.4927H9.24989V7.61769V7.11769H8.74989H5.24989H4.74989V7.61769V11.4927H2.24989V7.73231V6.52521L1.39634 7.37876L1.13996 7.63513C0.993537 7.78156 0.756244 7.78156 0.609819 7.63513C0.463394 7.48871 0.463394 7.25142 0.609819 7.10499Z" stroke="#313336"/>
</svg> -->
<svg fill="none" xmlns="http://www.w3.org/2000/svg" viewBox="0 0 24 24" width="24px" height="24px"><path d="M 12 2.0996094 L 1 12 L 4 12 L 4 21 L 10 21 L 10 15 L 14 15 L 14 21 L 20 21 L 20 12 L 23 12 L 12 2.0996094 z"/></svg>