<svg width="14" height="14" viewBox="0 0 14 14" xmlns="http://www.w3.org/2000/svg">
<path d="M7 0.903226C10.3482 0.903226 13.0968 3.61502 13.0968 7C13.0968 10.3671 10.3699 13.0968 7 13.0968C3.63424 13.0968 0.903226 10.3712 0.903226 7C0.903226 3.6354 3.62989 0.903226 7 0.903226ZM7 0C3.13428 0 0 3.13541 0 7C0 10.8668 3.13428 14 7 14C10.8657 14 14 10.8668 14 7C14 3.13541 10.8657 0 7 0ZM5.98387 9.70968H6.32258V6.32258H5.98387C5.79682 6.32258 5.64516 6.17092 5.64516 5.98387V5.75806C5.64516 5.57101 5.79682 5.41935 5.98387 5.41935H7.33871C7.52576 5.41935 7.67742 5.57101 7.67742 5.75806V9.70968H8.01613C8.20318 9.70968 8.35484 9.86133 8.35484 10.0484V10.2742C8.35484 10.4612 8.20318 10.6129 8.01613 10.6129H5.98387C5.79682 10.6129 5.64516 10.4612 5.64516 10.2742V10.0484C5.64516 9.86133 5.79682 9.70968 5.98387 9.70968ZM7 2.93548C6.50116 2.93548 6.09677 3.33987 6.09677 3.83871C6.09677 4.33754 6.50116 4.74194 7 4.74194C7.49883 4.74194 7.90323 4.33754 7.90323 3.83871C7.90323 3.33987 7.49883 2.93548 7 2.93548Z" />
</svg>
