<svg xmlns="http://www.w3.org/2000/svg" xmlns:xlink="http://www.w3.org/1999/xlink" viewBox="0 0 24 24" width="24" height="24"><path d=" M 12.552 17.412 C 12.598 17.257 12.645 17.099 12.685 16.938 C 12.691 16.912 13.391 14.21 14.139 11.391 C 15.426 6.541 15.74 5.566 15.81 5.417 C 16.05 4.922 16.438 4.548 16.997 4.273 C 17.48 4.035 18.095 3.879 18.827 3.806 C 19.042 3.784 19.246 3.665 19.394 3.472 C 19.529 3.297 19.608 3.076 19.608 2.865 C 19.608 2.388 19.219 2 18.743 2 L 8.938 2 C 8.461 2 8.073 2.388 8.073 2.865 L 8.073 2.895 C 8.073 3.321 8.379 3.679 8.799 3.748 C 9.356 3.838 10.12 3.963 10.72 4.247 C 11.028 4.391 11.267 4.568 11.426 4.77 C 11.607 4.997 11.695 5.26 11.695 5.572 C 11.695 6.155 11.524 6.741 11.359 7.306 C 11.325 7.424 11.289 7.549 11.255 7.67 C 11.044 8.424 10.732 9.568 10.372 10.894 C 9.541 13.945 8.507 17.74 8.248 18.462 C 8.073 18.949 7.423 20.101 5.189 20.272 C 4.972 20.288 4.769 20.387 4.622 20.546 C 4.473 20.707 4.392 20.914 4.392 21.133 L 4.392 21.135 C 4.392 21.612 4.781 22 5.257 22 L 15.064 22 C 15.541 22 15.929 21.612 15.929 21.135 L 15.929 21.129 C 15.929 20.693 15.603 20.325 15.171 20.272 C 15.086 20.262 15.004 20.252 14.915 20.242 C 14.055 20.144 12.985 20.019 12.534 19.434 C 12.325 19.162 12.258 18.804 12.327 18.344 C 12.371 18.032 12.46 17.73 12.552 17.412 Z " /></svg>
