<svg width="17" height="16" fill="none" xmlns="http://www.w3.org/2000/svg"><path d="M15.588 8.559c.49-.49.759-1.14.759-1.831 0-.692-.27-1.342-.759-1.832a2.572 2.572 0 0 0-1.831-.758c-.692 0-1.342.269-1.832.758a2.575 2.575 0 0 0-.454 3.05.377.377 0 0 1-.066.445l-1.24 1.24.256.257-.07.07.07-.07a.376.376 0 1 1-.533.533l-.256-.256-.51.51.458.459-.07.07a.277.277 0 0 1 0 .392l6.078-3.037zm0 0c-.489.489-1.139.758-1.83.758l1.83-.758zm-7.305 4l-.071-.07.07.07zm0 0a.376.376 0 0 1-.533 0l-.257-.256-.954.954v1.18h1.18l5.089-5.089a.377.377 0 0 1 .353-.1c.195.046.396.069.596.069l-5.474 3.242zM7.953 1.01a.377.377 0 0 0-.533 0L1.01 7.42a.377.377 0 0 0 0 .532l2.724 2.724a.377.377 0 0 0 .533 0l6.409-6.41a.377.377 0 0 0 0-.532l-.07.07.07-.07-.995-.995c1.9-1.44 3.681-1.178 4.792-.382.631.451 1.032 1.06 1.109 1.568a3.32 3.32 0 0 0-1.825-.541c-.893 0-1.733.348-2.365.98l.071.07-.07-.07a3.315 3.315 0 0 0-.947 1.894c-.085.605 0 1.23.238 1.788l-4.788 4.789a.377.377 0 0 0-.11.266v1.713c0 .208.168.377.376.377h1.713c.1 0 .195-.04.266-.11l5.057-5.057a3.322 3.322 0 0 0 2.923-.932c.631-.632.979-1.472.979-2.364 0-.811-.287-1.578-.812-2.184.122-.441.045-.943-.186-1.424-.24-.502-.65-.99-1.19-1.376l-.058.081.058-.081c-1.369-.98-3.537-1.29-5.77.457l-1.19-1.19zM1.81 7.686L7.686 1.81l.884.884a8.926 8.926 0 0 0-.2.194.377.377 0 0 0 .533.533c.067-.067.134-.132.2-.194L9.877 4 4 9.877 1.81 7.686z" fill="#000" stroke="#000" stroke-width=".2"/><path d="M14.197 5.053a.418.418 0 1 0-.59.59l1.234 1.235a.418.418 0 0 0 .59-.591l-1.234-1.234z" fill="#000"/></svg>