<svg width="18" height="9" fill="none" xmlns="http://www.w3.org/2000/svg"><path d="M7.325 5.823a.343.343 0 0 1 .313-.202h1.937l.646-.646a.342.342 0 0 1 .484 0l.646.646h1.506l.646-.646a.343.343 0 0 1 .485 0l-6.663.848zm0 0a2.98 2.98 0 0 1-2.715 1.76A2.978 2.978 0 0 1 1.635 4.61 2.978 2.978 0 0 1 4.61 1.635c1.125 0 2.142.625 2.652 1.63a.343.343 0 0 0 .306.187h8.797v.382H7.647a.343.343 0 0 0 0 .686h8.718v.57l-.531.53h-1.2l-.646-.645-6.663.848zm9.625-.349a.343.343 0 0 0 .1-.242V3.11a.343.343 0 0 0-.343-.343H7.771A3.643 3.643 0 0 0 4.61.95 3.664 3.664 0 0 0 .95 4.61a3.664 3.664 0 0 0 3.66 3.66 3.666 3.666 0 0 0 3.242-1.964h1.865c.09 0 .178-.036.242-.1l.504-.504.504.504c.064.064.151.1.242.1H13c.091 0 .178-.036.243-.1l.504-.504.504.504c.064.064.151.1.242.1h1.484c.09 0 .178-.036.242-.1l.732-.732zM2.389 4.61a1.1 1.1 0 0 0 2.197 0 1.1 1.1 0 0 0-2.197 0zm.685 0a.414.414 0 1 1 .828 0 .414.414 0 0 1-.828 0z" fill="#000" stroke="#000" stroke-width=".1"/></svg>