<svg width="12" height="16" fill="none" xmlns="http://www.w3.org/2000/svg"><path d="M9.078 8.581a.294.294 0 0 0-.294.294v3.863H1.497V3.261h7.581a.294.294 0 0 0 0-.587H1.497v-.144a1.02 1.02 0 0 1 1.019-1.019H9a.294.294 0 0 0 0-.587H2.516c-.886 0-1.607.72-1.607 1.606V13.47c0 .886.72 1.606 1.607 1.606h5.25c.885 0 1.606-.72 1.606-1.606V8.875a.294.294 0 0 0-.294-.294zm-1.312 5.907h-5.25a1.02 1.02 0 0 1-1.02-1.02v-.143h7.288v.144a1.02 1.02 0 0 1-1.018 1.019z" fill="#000" stroke="#1D1D1B" stroke-width=".15"/><path d="M5.578 13.613h-.875a.294.294 0 1 0 0 .587h.875a.294.294 0 0 0 0-.587zM3.62 1.886a.296.296 0 0 0 0 .416.295.295 0 0 0 .416 0 .295.295 0 0 0 0-.416.295.295 0 0 0-.416 0z" fill="#000" stroke="#1D1D1B" stroke-width=".15"/><path d="M3.956 6.925c0-.151-.048-.267-.143-.347-.096-.082-.269-.168-.518-.257-.25-.091-.447-.18-.593-.268-.396-.238-.594-.56-.594-.965 0-.21.053-.397.158-.561.107-.166.26-.295.458-.388.2-.093.424-.139.671-.139.25 0 .472.05.667.152.195.1.346.242.453.426.109.183.163.392.163.625h-.72c0-.178-.05-.316-.15-.414-.101-.1-.242-.15-.425-.15-.175 0-.312.042-.41.126a.405.405 0 0 0-.146.326c0 .126.057.233.17.318.115.086.284.166.506.24.41.138.707.308.895.511.187.204.28.457.28.76 0 .337-.114.601-.343.794-.228.19-.536.286-.923.286-.268 0-.513-.054-.734-.163-.22-.11-.389-.261-.505-.452A1.258 1.258 0 0 1 2 6.722h.722c0 .43.23.644.69.644.171 0 .305-.038.4-.115a.398.398 0 0 0 .144-.326zM6.107 4.053l.897 2.824.891-2.824h.945v3.894h-.722V6.882l.072-1.837-.942 2.902h-.494l-.94-2.899.072 1.834v1.065h-.719V4.053h.94zM11.278 6.925c0-.151-.048-.267-.144-.347-.095-.082-.268-.168-.517-.257-.25-.091-.447-.18-.593-.268-.396-.238-.594-.56-.594-.965 0-.21.053-.397.158-.561.107-.166.26-.295.458-.388.2-.093.424-.139.671-.139.25 0 .472.05.667.152.195.1.346.242.453.426.109.183.163.392.163.625h-.72c0-.178-.05-.316-.15-.414-.101-.1-.242-.15-.425-.15-.175 0-.312.042-.41.126a.405.405 0 0 0-.146.326c0 .126.057.233.17.318.115.086.284.166.506.24.41.138.708.308.895.511.186.204.28.457.28.76 0 .337-.114.601-.343.794-.228.19-.536.286-.923.286-.268 0-.513-.054-.733-.163-.221-.11-.39-.261-.506-.452a1.258 1.258 0 0 1-.173-.663h.722c0 .43.23.644.69.644.171 0 .305-.038.4-.115a.398.398 0 0 0 .144-.326z" fill="#000"/></svg>