<svg width="14" height="14" viewBox="0 0 14 14" fill="none" xmlns="http://www.w3.org/2000/svg">
<path d="M9.07812 7.58133C8.9159 7.58133 8.78438 7.71286 8.78438 7.87508V11.7375H1.49687V2.2625H3.82812C3.99035 2.2625 4.12188 2.13098 4.12188 1.96875C4.12188 1.80652 3.99035 1.675 3.82812 1.675H1.49687V1.53125C1.49687 0.969578 1.95395 0.5125 2.51562 0.5125H7.76562C7.92785 0.5125 8.05937 0.380976 8.05937 0.21875C8.05937 0.056524 7.92785 -0.075 7.76562 -0.075H2.51562C1.62988 -0.075 0.909375 0.645508 0.909375 1.53125V12.4688C0.909375 13.3545 1.62988 14.075 2.51562 14.075H7.76562C8.65137 14.075 9.37187 13.3545 9.37187 12.4688V7.87508C9.37187 7.71286 9.24035 7.58133 9.07812 7.58133ZM7.76562 13.4875H2.51562C1.95395 13.4875 1.49687 13.0304 1.49687 12.4688V12.325H8.78438V12.4688C8.78438 13.0304 8.3273 13.4875 7.76562 13.4875Z" fill="black" stroke="#1D1D1B" stroke-width="0.15"/>
<path d="M5.57812 12.6125H4.70312C4.5409 12.6125 4.40937 12.744 4.40937 12.9062C4.40937 13.0685 4.5409 13.2 4.70312 13.2H5.57812C5.74035 13.2 5.87188 13.0685 5.87188 12.9062C5.87188 12.744 5.74035 12.6125 5.57812 12.6125Z" fill="black" stroke="#1D1D1B" stroke-width="0.15"/>
<path d="M3.62033 0.885951C3.56542 0.940859 3.53437 1.01658 3.53437 1.09375C3.53437 1.17092 3.56542 1.24664 3.62033 1.30155C3.6752 1.35642 3.75063 1.3875 3.82812 1.3875C3.90562 1.3875 3.98105 1.35642 4.03592 1.30155C4.0908 1.24668 4.12187 1.17124 4.12187 1.09375C4.12187 1.01626 4.0908 0.940824 4.03592 0.885951C3.98105 0.831079 3.90562 0.8 3.82812 0.8C3.75063 0.8 3.6752 0.831079 3.62033 0.885951Z" fill="black" stroke="#1D1D1B" stroke-width="0.15"/>
<path d="M11.4844 0.8H5.79688C4.91113 0.8 4.19062 1.52051 4.19062 2.40625V5.6875C4.19062 6.47303 4.75719 7.1284 5.50312 7.26682V8.00313C5.50312 8.21106 5.62741 8.39706 5.8195 8.47662C5.88316 8.50298 5.94988 8.51585 6.01609 8.51585C6.14931 8.51585 6.27987 8.46369 6.37803 8.36553L7.44981 7.29375H11.4844C12.3701 7.29375 13.0906 6.57324 13.0906 5.6875V2.40625C13.0906 1.52051 12.3701 0.8 11.4844 0.8ZM12.5031 5.6875C12.5031 6.24917 12.046 6.70625 11.4844 6.70625H7.32812C7.25021 6.70625 7.17549 6.7372 7.12041 6.79228C7.12041 6.79228 7.12041 6.79228 7.12041 6.79228L6.09063 7.82192V7C6.09063 6.83777 5.9591 6.70625 5.79688 6.70625C5.2352 6.70625 4.77812 6.24917 4.77812 5.6875V2.40625C4.77812 1.84458 5.2352 1.3875 5.79688 1.3875H11.4844C12.046 1.3875 12.5031 1.84458 12.5031 2.40625V5.6875Z" fill="black" stroke="#1D1D1B" stroke-width="0.15"/>
<path d="M6.5123 4.40322C6.5123 4.31468 6.48105 4.24697 6.41855 4.2001C6.35605 4.15218 6.24355 4.10218 6.08105 4.0501C5.91855 3.99697 5.78991 3.94489 5.69512 3.89385C5.43678 3.75426 5.30762 3.56624 5.30762 3.32979C5.30762 3.20687 5.34199 3.09749 5.41074 3.00166C5.48053 2.90479 5.58001 2.82926 5.70918 2.7751C5.83939 2.72093 5.98522 2.69385 6.14668 2.69385C6.30918 2.69385 6.45397 2.72354 6.58105 2.78291C6.70814 2.84124 6.80658 2.92406 6.87637 3.03135C6.9472 3.13864 6.98262 3.26051 6.98262 3.39697H6.51387C6.51387 3.29281 6.48105 3.21208 6.41543 3.15479C6.3498 3.09645 6.25762 3.06729 6.13887 3.06729C6.02428 3.06729 5.93522 3.09176 5.87168 3.14072C5.80814 3.18864 5.77637 3.25218 5.77637 3.33135C5.77637 3.40531 5.81335 3.46729 5.8873 3.51729C5.9623 3.56729 6.0722 3.61416 6.21699 3.65791C6.48366 3.73812 6.67793 3.8376 6.7998 3.95635C6.92168 4.0751 6.98262 4.22301 6.98262 4.4001C6.98262 4.59697 6.90814 4.75166 6.75918 4.86416C6.61022 4.97562 6.4097 5.03135 6.15762 5.03135C5.98262 5.03135 5.82324 4.99958 5.67949 4.93604C5.53574 4.87145 5.42585 4.78343 5.3498 4.67197C5.2748 4.56051 5.2373 4.43135 5.2373 4.28447H5.70762C5.70762 4.53551 5.85762 4.66104 6.15762 4.66104C6.26908 4.66104 6.35605 4.63864 6.41855 4.59385C6.48105 4.54801 6.5123 4.48447 6.5123 4.40322Z" fill="black"/>
<path d="M7.91387 2.7251L8.49824 4.3751L9.07949 2.7251H9.69512V5.0001H9.2248V4.37822L9.27168 3.30479L8.65762 5.0001H8.33574L7.72324 3.30635L7.77012 4.37822V5.0001H7.30137V2.7251H7.91387Z" fill="black"/>
<path d="M11.2842 4.40322C11.2842 4.31468 11.2529 4.24697 11.1904 4.2001C11.1279 4.15218 11.0154 4.10218 10.8529 4.0501C10.6904 3.99697 10.5618 3.94489 10.467 3.89385C10.2087 3.75426 10.0795 3.56624 10.0795 3.32979C10.0795 3.20687 10.1139 3.09749 10.1826 3.00166C10.2524 2.90479 10.3519 2.82926 10.4811 2.7751C10.6113 2.72093 10.7571 2.69385 10.9186 2.69385C11.0811 2.69385 11.2258 2.72354 11.3529 2.78291C11.48 2.84124 11.5785 2.92406 11.6482 3.03135C11.7191 3.13864 11.7545 3.26051 11.7545 3.39697H11.2857C11.2857 3.29281 11.2529 3.21208 11.1873 3.15479C11.1217 3.09645 11.0295 3.06729 10.9107 3.06729C10.7962 3.06729 10.7071 3.09176 10.6436 3.14072C10.58 3.18864 10.5482 3.25218 10.5482 3.33135C10.5482 3.40531 10.5852 3.46729 10.6592 3.51729C10.7342 3.56729 10.8441 3.61416 10.9889 3.65791C11.2555 3.73812 11.4498 3.8376 11.5717 3.95635C11.6936 4.0751 11.7545 4.22301 11.7545 4.4001C11.7545 4.59697 11.68 4.75166 11.5311 4.86416C11.3821 4.97562 11.1816 5.03135 10.9295 5.03135C10.7545 5.03135 10.5951 4.99958 10.4514 4.93604C10.3076 4.87145 10.1977 4.78343 10.1217 4.67197C10.0467 4.56051 10.0092 4.43135 10.0092 4.28447H10.4795C10.4795 4.53551 10.6295 4.66104 10.9295 4.66104C11.041 4.66104 11.1279 4.63864 11.1904 4.59385C11.2529 4.54801 11.2842 4.48447 11.2842 4.40322Z" fill="black"/>
</svg>
