<svg width="14" height="14" viewBox="0 0 14 14" fill="none" xmlns="http://www.w3.org/2000/svg">
<path d="M6.35014 1.25452C2.84868 1.25452 0 4.1032 0 7.60466C0 11.1061 2.84868 13.9547 6.35014 13.9547C9.8516 13.9547 12.7002 11.1061 12.7002 7.60466V7.1279H6.8269V1.25452H6.35014ZM11.7258 8.08142C11.4838 10.8348 9.16526 13.0012 6.35014 13.0012C3.37439 13.0013 0.953523 10.5804 0.953523 7.60466C0.953523 4.78948 3.11999 2.4709 5.87338 2.22889V8.08142H11.7258ZM14 5.60811C14 2.54108 11.5048 0.0458984 8.43779 0.0458984H7.96102V6.08488H14V5.60811ZM8.91455 5.13135V1.02389C11.0758 1.24708 12.7988 2.9701 13.022 5.13135H8.91455Z" fill="black"/>
</svg>
