<svg width="17" height="17" viewBox="-0.3 -0.3 17 17" fill="none" xmlns="http://www.w3.org/2000/svg">
<path d="M13.5488 5.48607C13.9047 6.18904 14.1187 6.95523 14.1785 7.74089C14.2383 8.52655 14.1428 9.31629 13.8974 10.065C13.652 10.8138 13.2615 11.5068 12.7482 12.1047C12.235 12.7025 11.609 13.1934 10.906 13.5493L9.95744 11.6757C10.4144 11.4444 10.8213 11.1253 11.1549 10.7367C11.4885 10.3481 11.7423 9.89765 11.9018 9.41097C12.0613 8.92429 12.1234 8.41096 12.0846 7.90028C12.0457 7.3896 11.9066 6.89158 11.6753 6.43465L13.5488 5.48607Z" />
<path d="M7.86655 14.1873C7.0798 14.1441 6.30928 13.9463 5.59898 13.6053C4.88868 13.2642 4.2525 12.7866 3.72678 12.1997C3.20105 11.6128 2.79608 10.9281 2.53497 10.1847C2.27386 9.44131 2.16173 8.65375 2.20499 7.867L4.30182 7.98229C4.2737 8.49367 4.34659 9.00559 4.51631 9.4888C4.68603 9.97202 4.94926 10.4171 5.29098 10.7986C5.63271 11.18 6.04622 11.4905 6.50792 11.7122C6.96961 11.9338 7.47045 12.0624 7.98183 12.0905L7.86655 14.1873Z" />
<path d="M2.99979 5.19618C3.39375 4.51381 3.91826 3.91572 4.54337 3.43606C5.16848 2.9564 5.88194 2.60456 6.64302 2.40063C7.40411 2.1967 8.1979 2.14467 8.97909 2.24751C9.76029 2.35036 10.5136 2.60606 11.1959 3.00003L10.1459 4.81868C9.7024 4.56261 9.21276 4.3964 8.70499 4.32955C8.19722 4.2627 7.68125 4.29652 7.18654 4.42907C6.69184 4.56163 6.22809 4.79032 5.82177 5.1021C5.41545 5.41388 5.07452 5.80264 4.81844 6.24618L2.99979 5.19618Z" />
</svg>
