<svg width="16" height="16" viewBox="0 0 16 16" fill="none" xmlns="http://www.w3.org/2000/svg">
<circle cx="8" cy="8" r="6.4" stroke="black" stroke-width="1.2"/>
<path d="M8.12915 10.4795H7.74277C7.47066 10.4795 7.24951 10.7006 7.24951 10.9728V11.5063C7.24951 11.7784 7.47066 11.9996 7.74277 11.9996H8.12915C8.40127 11.9996 8.62241 11.7784 8.62241 11.5063V10.9728C8.62241 10.6998 8.40127 10.4795 8.12915 10.4795Z" fill="black"/>
<path d="M5.40486 6.34957L6.11762 6.43836C6.3437 6.46631 6.55827 6.33642 6.63966 6.12349C6.74242 5.85467 6.88547 5.64256 7.06879 5.48801C7.32859 5.26933 7.65167 5.15917 8.03805 5.15917C8.43842 5.15917 8.75739 5.2644 8.99416 5.47403C9.23093 5.68449 9.34849 5.93605 9.34849 6.23119C9.34849 6.44329 9.2819 6.63731 9.14872 6.81324C9.0624 6.92504 8.79686 7.16017 8.35374 7.51943C7.90981 7.87869 7.61468 8.20259 7.4667 8.49032C7.31543 8.78464 7.26282 9.11101 7.24966 9.43822C7.23816 9.71855 7.46177 9.95203 7.74293 9.95203H8.14576C8.40225 9.95203 8.61436 9.75555 8.63738 9.5007C8.65382 9.31737 8.68424 9.17844 8.73028 9.0839C8.80755 8.92193 9.00732 8.70819 9.32794 8.44183C9.94862 7.92801 10.3531 7.52189 10.543 7.22265C10.7321 6.92422 10.8275 6.60771 10.8275 6.27312C10.8275 5.66887 10.5701 5.13861 10.0547 4.68317C9.54005 4.22772 8.84619 4 7.97476 4C7.14608 4 6.47771 4.22443 5.96801 4.67413C5.53394 5.05723 5.27004 5.51103 5.17714 6.03471C5.14836 6.18762 5.25277 6.33066 5.40486 6.34957Z" fill="black"/>
</svg>
