<svg width="16" height="16" viewBox="0 0 16 16" fill="none" xmlns="http://www.w3.org/2000/svg">
<path d="M8.22641 12.3398H7.55022C7.07402 12.3398 6.68701 12.7269 6.68701 13.2031V14.1368C6.68701 14.613 7.07402 15 7.55022 15H8.22641C8.70262 15 9.08962 14.613 9.08962 14.1368V13.2031C9.08962 12.7254 8.70262 12.3398 8.22641 12.3398Z" fill="black"/>
<path d="M3.45863 5.11181L4.70598 5.26719C5.10162 5.3161 5.47712 5.08879 5.61956 4.71616C5.79939 4.24571 6.04973 3.87452 6.37056 3.60405C6.8252 3.22135 7.3906 3.02857 8.06679 3.02857C8.76743 3.02857 9.32565 3.21272 9.73999 3.57959C10.1543 3.9479 10.3601 4.38814 10.3601 4.90463C10.3601 5.27582 10.2435 5.61535 10.0105 5.92324C9.85941 6.1189 9.39471 6.53037 8.61925 7.15908C7.84235 7.78779 7.32587 8.35463 7.0669 8.85817C6.80218 9.37324 6.7101 9.94439 6.68709 10.517C6.66696 11.0076 7.05827 11.4162 7.55031 11.4162H8.25527C8.70414 11.4162 9.07533 11.0723 9.11561 10.6263C9.14439 10.3055 9.19762 10.0624 9.2782 9.89694C9.41342 9.6135 9.76303 9.23944 10.3241 8.77332C11.4103 7.87411 12.1182 7.1634 12.4505 6.63971C12.7814 6.11746 12.9483 5.56356 12.9483 4.97801C12.9483 3.92056 12.498 2.9926 11.5959 2.19556C10.6953 1.39852 9.48104 1 7.95602 1C6.50581 1 5.33615 1.39277 4.44415 2.17973C3.68452 2.85017 3.22269 3.64433 3.06012 4.56079C3.00975 4.82838 3.19247 5.07872 3.45863 5.11181Z" fill="black"/>
</svg>
