<svg xmlns="http://www.w3.org/2000/svg" xmlns:xlink="http://www.w3.org/1999/xlink" viewBox="0 0 24 24" width="24" height="24"><path d=" M 10.035 6.684 C 10.535 6.474 10.745 5.877 10.519 5.393 L 9.728 3.731 C 9.502 3.264 8.954 3.054 8.47 3.264 C 7.098 3.845 5.921 4.603 4.985 5.523 C 3.839 6.603 3.065 7.846 2.645 9.217 C 2.226 10.605 2 12.492 2 14.896 L 2 19.85 C 2 20.382 2.436 20.818 2.968 20.818 L 9.309 20.818 C 9.841 20.818 10.277 20.382 10.277 19.85 L 10.277 13.509 C 10.277 12.976 9.841 12.541 9.309 12.541 L 6.276 12.541 C 6.308 10.911 6.695 9.604 7.405 8.62 C 7.986 7.83 8.857 7.184 10.035 6.684 Z " /><path d=" M 21.426 6.684 C 21.926 6.474 22.135 5.877 21.91 5.393 L 21.119 3.748 C 20.893 3.28 20.345 3.07 19.861 3.28 C 18.505 3.861 17.343 4.619 16.392 5.523 C 15.246 6.62 14.456 7.862 14.036 9.233 C 13.616 10.589 13.407 12.476 13.407 14.897 L 13.407 19.85 C 13.407 20.382 13.843 20.818 14.375 20.818 L 20.716 20.818 C 21.248 20.818 21.684 20.382 21.684 19.85 L 21.684 13.509 C 21.684 12.976 21.248 12.541 20.716 12.541 L 17.666 12.541 C 17.699 10.911 18.086 9.605 18.796 8.62 C 19.377 7.83 20.248 7.184 21.426 6.684 Z " /></svg>
