<svg xmlns="http://www.w3.org/2000/svg" width="20" height="20" viewBox="0 0 20 20">
    <path d="M9.99 2.55c-.78 0-1.4.54-1.6 1.25H.92a.42.42 0 0 0-.36.19.46.46 0 0 0 0 .4c.08.14.21.22.36.22H8.4c.2.71.81 1.25 1.59 1.25.77 0 1.4-.54 1.6-1.25h7.48c.14 0 .27-.08.36-.21a.45.45 0 0 0 0-.41.44.44 0 0 0-.36-.22h-7.49a1.65 1.65 0 0 0-1.6-1.22zm0 .82c.45 0 .8.34.82.8v.08a.81.81 0 0 1-.82.8.81.81 0 0 1-.82-.8v-.09c.02-.45.37-.8.82-.8zm5.78 4.96c-.77 0-1.4.54-1.59 1.25H.91a.44.44 0 0 0-.36.22.46.46 0 0 0 0 .4c.08.13.21.22.36.22h13.27c.2.7.82 1.25 1.6 1.25.77 0 1.4-.54 1.59-1.25h1.72c.15 0 .28-.09.36-.22a.46.46 0 0 0 0-.4.44.44 0 0 0-.36-.22h-1.72a1.64 1.64 0 0 0-1.6-1.25zm0 .82c.46 0 .8.34.82.8v.08a.81.81 0 0 1-.82.8.81.81 0 0 1-.81-.8v-.08c.02-.46.36-.8.81-.8zM5.45 14.12c-.77 0-1.4.54-1.59 1.25H.91a.44.44 0 0 0-.36.21.46.46 0 0 0 0 .4c.08.14.21.22.36.22h2.95c.2.71.82 1.25 1.6 1.25.77 0 1.39-.54 1.58-1.25H19.1c.15 0 .28-.08.36-.21a.46.46 0 0 0 0-.4.44.44 0 0 0-.36-.22H7.04a1.63 1.63 0 0 0-1.59-1.25zm0 .82c.45 0 .8.34.82.8v.08a.81.81 0 0 1-.82.8.81.81 0 0 1-.82-.8v-.09c.03-.45.37-.8.82-.8z"/>
</svg>
