<svg width="16" height="16" viewBox="0 0 16 16" fill="none" xmlns="http://www.w3.org/2000/svg">
<path d="M7.64318 1.70402C7.79129 1.41181 8.20863 1.41181 8.35674 1.70402L10.2959 5.52977C10.3541 5.64451 10.4639 5.72427 10.591 5.74413L14.8287 6.40619C15.1524 6.45675 15.2814 6.85367 15.0492 7.08483L12.01 10.1113C11.9188 10.2021 11.8769 10.3312 11.8973 10.4582L12.5772 14.6931C12.6291 15.0166 12.2914 15.2619 11.9999 15.1125L8.18231 13.1573C8.06781 13.0986 7.93211 13.0986 7.81762 13.1573L4.00006 15.1125C3.70848 15.2619 3.37084 15.0166 3.42277 14.6931L4.10265 10.4582C4.12304 10.3312 4.08111 10.2021 3.98996 10.1113L0.950691 7.08483C0.718556 6.85367 0.847522 6.45675 1.1712 6.40619L5.40895 5.74413C5.53604 5.72427 5.64583 5.64451 5.70399 5.52977L7.64318 1.70402Z" fill="black"/>
</svg>
