<svg width="16" height="16" viewBox="0 0 16 16" fill="none" xmlns="http://www.w3.org/2000/svg">
<path fill-rule="evenodd" clip-rule="evenodd" d="M7.99996 3.21196L6.59595 5.98188C6.39239 6.38347 6.00813 6.66265 5.5633 6.73215L2.49508 7.21149L4.69557 9.40274C5.0146 9.72043 5.16137 10.1722 5.09001 10.6167L4.59776 13.6829L7.36175 12.2672C7.76247 12.062 8.23745 12.062 8.63817 12.2672L11.4022 13.6829L10.9099 10.6167C10.8385 10.1722 10.9853 9.72043 11.3043 9.40274L13.5048 7.21149L10.4366 6.73215C9.99179 6.66265 9.60753 6.38347 9.40398 5.98189L7.99996 3.21196ZM8.35674 1.70402C8.20863 1.41181 7.79129 1.41181 7.64318 1.70402L5.70399 5.52977C5.64583 5.64451 5.53604 5.72427 5.40895 5.74413L1.1712 6.40619C0.847522 6.45675 0.718556 6.85367 0.950691 7.08483L3.98996 10.1113C4.08111 10.2021 4.12304 10.3312 4.10265 10.4582L3.42277 14.6931C3.37084 15.0166 3.70848 15.2619 4.00006 15.1125L7.81762 13.1573C7.93211 13.0986 8.06781 13.0986 8.18231 13.1573L11.9999 15.1125C12.2914 15.2619 12.6291 15.0166 12.5772 14.6931L11.8973 10.4582C11.8769 10.3312 11.9188 10.2021 12.01 10.1113L15.0492 7.08483C15.2814 6.85367 15.1524 6.45675 14.8287 6.40619L10.591 5.74413C10.4639 5.72427 10.3541 5.64451 10.2959 5.52977L8.35674 1.70402Z" fill="black"/>
</svg>
