<svg width="14" height="14" fill="none" xmlns="http://www.w3.org/2000/svg"><path d="M7 9.114a2.132 2.132 0 1 0-.002-4.264A2.132 2.132 0 0 0 7 9.114zM7 5.57c.778 0 1.412.635 1.412 1.413S7.778 8.395 7 8.395a1.415 1.415 0 0 1-1.413-1.412c0-.778.635-1.413 1.413-1.413zM4.228 10.116a.368.368 0 0 0-.104-.254.363.363 0 0 0-.509 0 .363.363 0 0 0 0 .509.362.362 0 0 0 .509 0 .373.373 0 0 0 .104-.255zM6.303 2.967c.018 0 .039 0 .057-.003a.359.359 0 1 0-.057.003zM7.745 2.252a.36.36 0 1 0-.11.709.36.36 0 0 0 .11-.71zM11.732 7.725a.36.36 0 0 0-.3-.41.36.36 0 0 0-.11.71c.017.002.038.002.056.002a.356.356 0 0 0 .354-.302zM11.319 5.93a.36.36 0 0 0-.3.41c.027.176.18.302.353.302l.057-.003a.359.359 0 1 0-.11-.71zM3.867 4.212a.36.36 0 1 0-.254-.105.366.366 0 0 0 .254.105zM10.944 5.325a.361.361 0 0 0 .32-.524.361.361 0 0 0-.484-.155.358.358 0 0 0-.156.482.358.358 0 0 0 .32.197zM11.112 8.668a.356.356 0 0 0-.482.158.356.356 0 0 0 .159.482.356.356 0 0 0 .482-.159.36.36 0 0 0-.16-.481zM10.127 4.206a.36.36 0 1 0 .001-.72.36.36 0 0 0 0 .72zM2.98 7.62a.36.36 0 0 0-.41-.299.36.36 0 0 0-.299.41c.027.177.18.302.353.302l.057-.003a.36.36 0 0 0 .3-.41zM4.824 2.718a.358.358 0 0 0 .165.677.358.358 0 0 0 .32-.52.36.36 0 0 0-.485-.157zM2.732 4.81a.358.358 0 1 0 .482-.156.355.355 0 0 0-.482.156zM2.568 6.645c.018.003.038.003.056.003a.357.357 0 0 0 .354-.302.357.357 0 0 0-.3-.41.36.36 0 0 0-.11.71zM9.17 2.712a.358.358 0 1 0-.162.677.356.356 0 0 0 .162-.677zM3.373 8.833a.358.358 0 1 0-.637.325.358.358 0 0 0 .637-.325zM10.13 9.754a.368.368 0 0 0-.254.105.362.362 0 0 0 0 .509.363.363 0 0 0 .509 0 .363.363 0 0 0 0-.509.363.363 0 0 0-.254-.105zM2.301 11.323a.363.363 0 0 0-.254.104.362.362 0 0 0 0 .51.362.362 0 0 0 .509 0 .362.362 0 0 0 0-.51.363.363 0 0 0-.255-.104zM13.61 7.75a.359.359 0 1 0-.118.707.359.359 0 0 0 .119-.708zM2.63 2.335a.36.36 0 0 0 .27-.595.357.357 0 0 0-.506-.033.357.357 0 0 0-.033.506.36.36 0 0 0 .27.122zM12.291 3.323a.358.358 0 1 0-.216-.643.358.358 0 0 0 .216.643zM3.917 1.507a.359.359 0 1 0-.353-.625.356.356 0 0 0-.135.487.36.36 0 0 0 .488.138zM13.281 6.762a.358.358 0 0 0 .36.347h.011A.36.36 0 0 0 14 6.738a.36.36 0 0 0-.37-.347.355.355 0 0 0-.348.37zM12.674 4.278a.361.361 0 0 0 .48.167.36.36 0 0 0 .17-.478.36.36 0 1 0-.65.31zM13.105 5.487a.358.358 0 1 0 .697-.166.358.358 0 0 0-.697.166zM10.427.875a.355.355 0 0 0-.488.138.355.355 0 0 0 .314.532.36.36 0 0 0 .314-.182.36.36 0 0 0-.14-.488zM.458 5.76a.363.363 0 0 0 .434-.266.36.36 0 0 0-.263-.435.36.36 0 0 0-.171.7zM.805 8.052a.359.359 0 1 0-.706.122.362.362 0 0 0 .413.294.358.358 0 0 0 .293-.416zM1.248 10.33a.358.358 0 0 0-.102.496.357.357 0 0 0 .497.102.358.358 0 0 0 .102-.497.356.356 0 0 0-.497-.102zM.844 4.454a.353.353 0 0 0 .476-.17.358.358 0 0 0-.17-.48.36.36 0 0 0-.48.171.364.364 0 0 0 .174.48zM1.152 9.29a.36.36 0 1 0-.67.264.36.36 0 0 0 .67-.263zM.347 7.118H.36a.36.36 0 1 0-.012 0zM8.897.989a.358.358 0 0 0 .449-.233.36.36 0 0 0-.233-.453.36.36 0 0 0-.452.234.364.364 0 0 0 .236.452zM7.637.731l.036.003A.357.357 0 0 0 8.03.411.355.355 0 0 0 7.71.02a.358.358 0 0 0-.072.712zM6.314.734c.012 0 .024 0 .036-.003a.36.36 0 1 0-.036.003zM4.986 1.01a.36.36 0 0 0 .341-.47.36.36 0 0 0-.452-.234.36.36 0 0 0 .111.704zM1.487 3.258a.363.363 0 0 0 .503-.069.358.358 0 1 0-.572-.434.359.359 0 0 0 .07.503zM12.758 10.32a.358.358 0 1 0-.392.601.353.353 0 0 0 .497-.102.364.364 0 0 0-.105-.5zM11.127 2.243a.36.36 0 1 0 .473-.539.36.36 0 0 0-.506.036.35.35 0 0 0 .033.503zM13.318 9.078a.361.361 0 0 0-.467.203.361.361 0 0 0 .335.491.362.362 0 0 0 .335-.227.362.362 0 0 0-.203-.467zM11.698 11.323a.363.363 0 0 0-.254.104.363.363 0 0 0 0 .51.362.362 0 0 0 .509 0 .363.363 0 0 0 0-.51.374.374 0 0 0-.255-.104zM7 9.725c-.826 0-1.595.419-2.167 1.182-.547.73-.85 1.697-.85 2.72 0 .198.162.36.36.36h5.315a.36.36 0 0 0 .359-.36c0-1.024-.303-1.99-.85-2.72C8.595 10.144 7.826 9.725 7 9.725zm-2.283 3.543C4.845 11.682 5.82 10.443 7 10.443c1.18 0 2.155 1.239 2.283 2.825H4.717z" fill="#000"/></svg>