<svg width="15" height="16" viewBox="0 0 15 16" fill="none" xmlns="http://www.w3.org/2000/svg">
    <path fill-rule="evenodd" clip-rule="evenodd" d="M0 13.1504C7.35841e-05 12.9149 0.00435697 12.6711 0.0131741 12.4186C0.227599 10.7017 1.94243 9.24958 4.34703 8.56189C5.22552 9.38041 6.36026 9.87704 7.60095 9.87704C8.81248 9.87704 9.92499 9.40542 10.7945 8.62123C13.2199 9.36901 14.8979 10.906 14.9531 12.6924C14.957 12.8196 14.9603 12.9816 14.9631 13.1706C12.9739 14.9312 10.3582 16 7.49295 16C4.61668 16 1.99196 14.923 0 13.1504ZM5.86029 8.24485C6.38439 8.54293 6.97462 8.71502 7.60101 8.71502C8.20416 8.71502 8.77317 8.55465 9.2831 8.2766C10.5775 7.57039 11.4743 6.08157 11.4743 4.35754C11.4743 1.95483 9.73701 0 7.60101 0C5.4652 0 3.72769 1.95483 3.72769 4.35754C3.72769 6.0555 4.5973 7.52617 5.86029 8.24485Z" fill="white"/>
</svg>
