<svg xmlns="http://www.w3.org/2000/svg" viewBox="0 0 400 400">
  <path fill-rule="evenodd" d="M77.38 31.92A84.37 84.37 0 00.25 108.37c-.15 1.55-.26 9.75-.26 18.7V143l53.31-.07 53.31-.08 2-.54c23.97-6.48 24.51-39.58.75-46.35-1.98-.57-2.18-.58-20.87-.71l-18.88-.14-1.25-.57a7.9 7.9 0 01-.58-14.18l1.33-.75h19.63c23.34 0 24.23.11 31.82 3.9 29.28 14.59 29.5 56.1.38 70.76l-1.95.98v85.37l2.32.83c27.97 10.09 48.44 44.59 44.81 75.57-1.93 16.5-9.81 32.96-21.56 44.99a39.45 39.45 0 00-2.82 3.06c0 .1 25.55.17 56.78.17h56.78l-2.84-2.95c-18.66-19.35-26.18-45.65-19.98-69.9 6-23.5 23.38-44.12 42.95-50.91l2.31-.8v-42.85c0-35.06-.06-42.84-.33-42.84-.52 0-5.65-3.01-7.42-4.36-25.38-19.32-19.28-58.55 10.73-69 11.93-4.15 20.13-2.17 20.7 5 .41 5.03-2.81 8.14-8.93 8.6-24.66 1.88-31.35 34.14-9.38 45.2 5.4 2.71 2.48 2.6 62 2.5l51.75-.06.08-13c.15-26.9-1.43-36.2-8.7-51-12.5-25.47-35.53-42.08-64.56-46.56-2.56-.4-241.82-.79-246.31-.4M0 198.5v39.75h103.25v-79.5H0v39.75m293.56-.06l.06 39.69h103.26l.06-39.7.06-39.68H293.5l.06 39.69M.06 271.56c.12 18.9.13 19.17 1.58 26.32 6.98 34.45 35.38 61.28 70.23 66.35 9.53 1.39 32.38 1.45 38.86.12 19.15-3.96 36.24-24.61 39.63-47.88 3.56-24.44-13.25-53.22-35.38-60.57-5.8-1.93-.02-1.75-60.68-1.83l-54.33-.08.1 17.57m287.56-17.16c-26.87 4.83-46.98 38.35-40.24 67.07 5.18 22.07 21.61 39.76 40.11 43.17 5.14.95 29.32.76 36.86-.29 35.92-4.98 65.06-33.13 71.27-68.85 1.07-6.13 1.16-7.94 1.3-24.94l.12-16.56-53.71.02c-45.52.02-54.02.08-55.71.38"/>
</svg>
