<svg width="89" height="95" viewBox="0 0 89 95" fill="none" xmlns="http://www.w3.org/2000/svg">
  <path d="M59.22 16.64v76.42c0 1.05-.83 1.88-1.86 1.88H2.1c-1.01 0-1.86-.83-1.86-1.88V16.64c0-1.02.82-1.88 1.86-1.88h55.28c1.01.03 1.84.86 1.84 1.88z" fill="#585AFA"/>
  <path d="M59.22 35.96v57.1c0 1.05-.83 1.88-1.86 1.88H2.1c-1.01 0-1.86-.83-1.86-1.88V67.28l58.98-31.32z" fill="#3836BD"/>
  <path d="M45.8 88.49H4.84v-68.2h49.77v59.05L45.8 88.5z" fill="#F5F5FD"/>
  <path d="M46.31 88.49v-9.22h8.3l-8.3 9.22z" fill="#AAAFD7"/>
  <path fill-rule="evenodd" clip-rule="evenodd" d="M19.59 36.42c0-.26.12-.46.26-.46H35c.15 0 .27.2.27.46 0 .25-.12.46-.27.46H19.85c-.14 0-.26-.2-.26-.46zM19.59 41.03c0-.26.1-.46.24-.46h5.04c.14 0 .25.2.25.46 0 .25-.11.46-.25.46h-5.04c-.13 0-.24-.2-.24-.46zM27.88 41.03c0-.26.12-.46.27-.46h13.29c.15 0 .27.2.27.46 0 .25-.12.46-.27.46H28.15c-.15 0-.27-.2-.27-.46zM21.43 39.18c0-.25.12-.46.27-.46h25.26c.15 0 .28.2.28.46s-.13.46-.28.46H21.7c-.15 0-.27-.2-.27-.46zM38.94 36.42c0-.26.13-.46.28-.46h11.43c.15 0 .27.2.27.46 0 .25-.12.46-.27.46H39.22c-.15 0-.28-.2-.28-.46z" fill="#92CDF5"/>
  <path fill-rule="evenodd" clip-rule="evenodd" d="M10.37 36.23c0-.15.12-.27.27-.27h5.92c.14 0 .26.12.26.27v5.91c0 .15-.12.27-.26.27h-5.92a.27.27 0 01-.27-.27v-5.91zm.54.26v5.38h5.38V36.5H10.9z" fill="#3836BD"/>
  <path fill-rule="evenodd" clip-rule="evenodd" d="M19.48 36.17a.5.5 0 01-.1.72l-5 3.57a.55.55 0 01-.7-.05l-1.31-1.32a.5.5 0 01.01-.74c.21-.2.55-.19.76.02l.98 1 4.62-3.31a.55.55 0 01.74.1z" fill="#F2516C"/>
  <path fill-rule="evenodd" clip-rule="evenodd" d="M21.43 48.4c0-.26.13-.46.28-.46h9.58c.16 0 .28.2.28.46 0 .25-.12.46-.28.46h-9.58c-.15 0-.28-.2-.28-.46zM33.41 48.4c0-.26.12-.46.27-.46h16.06c.14 0 .26.2.26.46 0 .25-.12.46-.26.46H33.68c-.15 0-.27-.2-.27-.46z" fill="#92CDF5"/>
  <path fill-rule="evenodd" clip-rule="evenodd" d="M10.37 45.44c0-.15.12-.27.27-.27h5.92c.14 0 .26.12.26.27v5.92c0 .14-.12.26-.26.26h-5.92a.27.27 0 01-.27-.26v-5.92zm.54.27v5.38h5.38V45.7H10.9z" fill="#3836BD"/>
  <path fill-rule="evenodd" clip-rule="evenodd" d="M19.49 45.39c.17.23.12.55-.12.72l-5 3.57a.54.54 0 01-.7-.06l-1.3-1.33c-.2-.2-.2-.53.01-.73.21-.2.55-.2.76.01l.98 1 4.62-3.3a.54.54 0 01.75.12z" fill="#F2516C"/>
  <path fill-rule="evenodd" clip-rule="evenodd" d="M19.59 55.77c0-.25.11-.46.25-.46h7.8c.13 0 .24.2.24.46s-.1.46-.24.46h-7.8c-.14 0-.25-.2-.25-.46zM19.59 60.38c0-.26.11-.46.26-.46H35c.14 0 .26.2.26.46 0 .25-.12.46-.26.46H19.85c-.15 0-.26-.2-.26-.46zM38.94 60.38c0-.26.13-.46.28-.46h8.66c.16 0 .28.2.28.46 0 .25-.12.46-.28.46h-8.66c-.16 0-.28-.2-.28-.46zM30.65 55.77c0-.25.12-.46.27-.46h19.73c.15 0 .27.2.27.46s-.12.46-.27.46H30.92c-.15 0-.27-.2-.27-.46z" fill="#92CDF5"/>
  <path fill-rule="evenodd" clip-rule="evenodd" d="M10.37 54.66c0-.15.12-.27.27-.27h5.92c.14 0 .26.12.26.27v5.91c0 .15-.12.27-.26.27h-5.92a.27.27 0 01-.27-.27v-5.91zm.54.27v5.37h5.38v-5.37H10.9z" fill="#3836BD"/>
  <path fill-rule="evenodd" clip-rule="evenodd" d="M19.49 54.6c.17.23.12.56-.12.73l-5 3.57a.54.54 0 01-.7-.06l-1.3-1.33c-.2-.2-.2-.54.01-.74.21-.2.55-.19.76.02l.98 1 4.62-3.3a.54.54 0 01.75.11z" fill="#F2516C"/>
  <path fill-rule="evenodd" clip-rule="evenodd" d="M19.59 64.99c0-.26.12-.46.26-.46H35c.15 0 .27.2.27.46 0 .25-.12.46-.27.46H19.85c-.14 0-.26-.2-.26-.46zM19.59 69.6c0-.26.1-.47.24-.47h5.04c.14 0 .25.21.25.46 0 .26-.11.47-.25.47h-5.04c-.13 0-.24-.21-.24-.47zM27.88 69.6c0-.26.12-.47.27-.47h13.29c.15 0 .27.21.27.46 0 .26-.12.47-.27.47H28.15c-.15 0-.27-.21-.27-.47zM21.43 67.75c0-.25.12-.46.27-.46h25.26c.15 0 .28.2.28.46s-.13.46-.28.46H21.7c-.15 0-.27-.2-.27-.46zM38.94 64.99c0-.26.13-.46.28-.46h11.43c.15 0 .27.2.27.46 0 .25-.12.46-.27.46H39.22c-.15 0-.28-.2-.28-.46z" fill="#92CDF5"/>
  <path fill-rule="evenodd" clip-rule="evenodd" d="M10.37 63.87c0-.15.12-.27.27-.27h5.92c.14 0 .26.12.26.27v5.92c0 .15-.12.27-.26.27h-5.92a.27.27 0 01-.27-.27v-5.92zm.54.27v5.38h5.38v-5.38H10.9z" fill="#3836BD"/>
  <path fill-rule="evenodd" clip-rule="evenodd" d="M19.48 62.9a.5.5 0 01-.1.72l-5 3.57a.55.55 0 01-.7-.06l-1.31-1.32a.5.5 0 01.01-.73c.21-.2.55-.2.76.01l.98 1 4.62-3.3a.55.55 0 01.74.1z" fill="#F2516C"/>
  <path d="M46.16 11.91h-7.3a2.02 2.02 0 01-2-2.36A7.33 7.33 0 0029.8.94a7.3 7.3 0 00-7.26 8.42 2.23 2.23 0 01-2.21 2.55h-7.06c-1.1.03-1.98.92-1.98 2.03v6.17a2.02 2.02 0 001.98 2.02h32.92a2.02 2.02 0 001.97-2.02v-6.17a2.04 2.04 0 00-2-2.03zM29.71 4.27c2.2 0 3.94 1.8 3.94 4 0 2.22-1.78 4-3.94 4a3.97 3.97 0 01-3.94-4 3.94 3.94 0 013.94-4z" fill="#FFC6C2"/>
  <path d="M48.16 14.03v6.1c0 1.1-.86 1.98-1.93 2H14c-.33 0-.6-.08-.86-.22L40.86 12h5.37c1.07.02 1.93.93 1.93 2.03z" fill="#FFA69B"/>
  <path d="M63.7 25.74l-.8 3.7s4.2 3.16 6.45-1.84l-2.57-3.62-3.08 1.76z" fill="#FFC6C2"/>
  <path d="M61.77 53.76L58.3 72 73.5 86.64l2.3-2.84-9.26-13.2 2.55-18.98-7.32 2.14z" fill="#70BCE5"/>
  <path d="M67.9 52.57l7.9-2.79-7.16 37.79-3.9-.56 3.17-34.44z" fill="#70BCE5"/>
  <path d="M68.43 54.39l-1.9 16.59-1.78-1.61 3.68-14.98zM65.67 78.35l3.02 8.3.66-3.98-3.68-4.32z" fill="#29A0C1"/>
  <path d="M62.66 27.4s3.52 4.7 6.64-.66L76 29.4l2.57 7.18-3.91 2.55-1.26-3.98-.68 6.63 3.88 9.37-14.87 3.24-3.94-18.28-1.86.86-2.24-4.28 5.22-4.12 3.75-1.16z" fill="#585AFA"/>
  <path d="M56.23 37.06l-2.27-4.12-1.71 1.57.97-6.49 3.23-4.63-3.07-2.18-1.8 1.47-.52-1.17-.77.5 1.49 2.29-3.62 10.74.83 4.6 7.24-2.58z" fill="#FFC6C2"/>
  <path d="M57.83 53.47l-3.22 3.68h4.6l-1.38-3.68zM62.9 27.02l3.4.64 1.21-3.26-.38-.42-3.85 1.7-.38 1.34z" fill="#FFA69B"/>
  <path d="M61.73 22.81l1.82 3.74 2.49.2 1.47-2.22-1.98-5.16-4.47 1.77.67 1.67z" fill="#FFC6C2"/>
  <path d="M62.87 23.38c.13.25-.13.51-.62.58-.49.07-1.02-.07-1.16-.31-.13-.24.14-.51.63-.58.48-.06.97.07 1.15.31zM66.13 22.13a.46.46 0 100-.92.46.46 0 000 .92z" fill="#FFC6C2"/>
  <path d="M65.38 24.39l-.76.45c-.23.15-.51 0-.62-.3l-.18-.52 1.65-.96.17.5c.08.32-.02.69-.26.83z" fill="#fff"/>
  <path d="M63.9 21.21l-.08 2.77.93-.42-.85-2.35z" fill="#FFA69B"/>
  <path d="M66.4 21.8s.62-.56-.4-2.87c0 0-.33-.5-.9-.43 0 0-1.12-1.85-4.22-.45 0 0-4.2 1.8.73 4.99 0 0 1.1.34 1.84-1.86.2-.61.76-1.1 1.46-1.2.4-.06.79 0 .93.37l.56 1.45zM73.5 35.04l-3.22 6.84 3.63 9.74 2.82-.86-3.92-9.2.7-6.52z" fill="#3836BD"/>
  <path d="M58.3 53.45L85.2 42.4l1.65 4L59.7 57.15l-1.4-3.7z" fill="#F2516C"/>
  <path d="M85.02 42.9l.78-.32c1.08-.47 2.3.08 2.75 1.2a2.27 2.27 0 01-1.15 2.9l-.79.34-1.59-4.11z" fill="#FFA69B"/>
  <path d="M57.79 36.03l.5-4.68-1.84 5.53 1.34-.85z" fill="#3836BD"/>
  <path d="M52.77 27.66l-1.85 6.32.95.13.9-6.45z" fill="#FFA69B"/>
  <path d="M86.86 46.87L59.6 57.15l-.38-.95 27.3-10.1.34.77z" fill="#DB3E5F"/>
  <path d="M73.5 51.76l2.92-7.47-2-4.94 4.07-2.47 2.84 6.96-3.99 7.2-2.5 3.14-2.98.2-1.58-1.43 3.21-1.2z" fill="#FFC6C2"/>
  <path d="M73.96 51.62L72.1 54.4l-1.81-1.5 3.68-1.27z" fill="#FFA69B"/>
  <path d="M73.63 85.9l.51 4.34-1.1 3.27 1.46 1.43 4.07-9.2-3.48-1.86-1.46 2.02zM65.13 87.57l-.44 1.27-.87 1.95.87 3.23h2.2l1.54-2.43-1.08-2.35.08-1.37-2.3-.3z" fill="#2C218A"/>
  <path d="M74.7 84.8l1.1 4-2.36 4.3-.4-.32 1.2-3.75-.5-3.21.96-1.02zM65.37 87.57l-.62 3.32.3 2.2h1.04l.5-2.25-.34-3.13-.88-.14z" fill="#3836BD"/>
</svg>
