<svg xmlns="http://www.w3.org/2000/svg" fill="none" viewBox="0 0 91 91">
  <path fill="#7FC876" d="M9 22h72V12H9v10z"/>
  <path fill="#fff" d="M9 21.8h72.2v57.4H9V21.8z" opacity=".1"/>
  <path fill="#0F1012" fill-rule="evenodd" d="M80.2 22.8H10v55.4h70.2V22.8zM9 21.8v57.4h72.2V21.8H9z" clip-rule="evenodd" opacity=".1"/>
  <path fill="#0F1012" d="M23.6 18.8H13a1 1 0 01-1-1.1v-.8c0-.6.4-1 1-1h10.6c.6 0 1 .4 1 1v.8c0 .6-.4 1-1 1zM68.7 27.8H24v1.5h44.7v-1.5zM68.7 32.9H24v1.5h44.7V33zM68.7 37.8H24v1.5h44.7v-1.5zM68.7 42.8H24v1.6h44.7v-1.6zM68.7 48.5H24v1.6h44.7v-1.6zM68.7 53.6H24v1.6h44.7v-1.6zM68.7 58.5H24v1.6h44.7v-1.6zM68.7 63.6H24v1.6h44.7v-1.6z" opacity=".3"/>
  <path fill="#5F9CD4" fill-rule="evenodd" d="M18 30.8h-2.3v-2.4h2.4v2.4zm.8 2H15c-.7 0-1.3-.6-1.3-1.3v-3.8c0-.7.6-1.3 1.3-1.3h3.8c.7 0 1.3.6 1.3 1.3v3.8c0 .7-.6 1.3-1.3 1.3z" clip-rule="evenodd"/>
  <path fill="#5F9CD4" d="M15 52.7h3.8c.7 0 1.3-.6 1.3-1.3v-3.8c0-.7-.6-1.2-1.3-1.2H15c-.7 0-1.3.5-1.3 1.2v3.8c0 .7.6 1.3 1.3 1.3z"/>
  <path fill="#fff" d="M16.7 51l-1.8-1.5a.3.3 0 010-.4c.1-.2.3-.2.5 0l1.2 1 1.8-2h.5v.5L16.7 51z"/>
  <path fill="#5F9CD4" d="M15 42.7h3.8c.7 0 1.3-.5 1.3-1.2v-3.9c0-.7-.6-1.2-1.3-1.2H15c-.7 0-1.3.5-1.3 1.2v3.9c0 .6.6 1.2 1.3 1.2z"/>
  <path fill="#fff" d="M16.7 41l-1.8-1.5a.3.3 0 010-.4c.1-.2.3-.2.5 0l1.2 1 1.8-2h.5v.5L16.7 41z"/>
  <path fill="#5F9CD4" d="M15 62.7h3.8c.7 0 1.3-.6 1.3-1.3v-3.8c0-.7-.6-1.3-1.3-1.3H15c-.7 0-1.3.6-1.3 1.3v3.8c0 .7.6 1.3 1.3 1.3z"/>
  <path fill="#fff" d="M16.7 61l-1.8-1.5a.3.3 0 010-.5h.5l1.2 1 1.8-1.9h.5v.5L16.7 61z"/>
  <path fill="#fff" d="M66.3 65.8A14.5 14.5 0 1046 45.3a14.5 14.5 0 0020.4 20.5z" opacity=".2"/>
  <path fill="#202873" d="M56 70.5a15 15 0 11.1-30 15 15 0 010 30zm0-29a14 14 0 10.1 28 14 14 0 000-28z" opacity=".6"/>
  <path fill="#45A4DC" d="M69.4 66v-.1a16.9 16.9 0 10-3 3l2-2 1-1zM56 70a14.5 14.5 0 110-29 14.5 14.5 0 010 29z"/>
  <path fill="#3DA5E2" d="M56 72.7A17.1 17.1 0 1169.7 66l-3.1 3.1a17 17 0 01-10.4 3.6zm0-33.8a16.7 16.7 0 1010.2 29.9l3-3 .1-.1a16.7 16.7 0 00-13.2-26.8zm0 31.3a14.7 14.7 0 11.1-29.4 14.7 14.7 0 010 29.4zm0-28.9a14.3 14.3 0 10.1 28.5 14.3 14.3 0 000-28.5z"/>
  <path fill="#202873" d="M69 68.6l-.7-.7a.6.6 0 010-1l-2 2c-.2.3-.2.7 0 1l.8.8c.3-.5 1-1.3 1.9-2.1z"/>
  <path fill="#4F66AF" d="M68.3 67c-.2.2-.2.6 0 .9l.7.7a18 18 0 012-2l-.7-.7a.6.6 0 00-.8 0h-.1l-1 1z"/>
  <path fill="#202873" d="M68.3 67c-.2.2-.2.6 0 .9l.7.7a18 18 0 012-2l-.7-.7a.6.6 0 00-.8 0h-.1l-1 1z" opacity=".4"/>
  <path fill="#45A4DC" d="M83.3 78.6l-11.9-12h-.3l-2.1 2-1.9 2v.4l11.8 12a3 3 0 004.4 0 3.2 3.2 0 000-4.4z"/>
  <path fill="#45A4DC" d="M83.3 78.6l-11.9-12c-.1-.2-1.5 1-2.7 2.2-1 1 13.4 15.4 14.6 14.2a3.2 3.2 0 000-4.4z" opacity=".1"/>
</svg>
