<svg xmlns="http://www.w3.org/2000/svg" width="70" height="70" viewBox="0 0 70 70">
    <path d="M19.5 1.5c-3.1 0-5.9.8-8.4 2.2l1 1.7c2.2-1.3 4.7-2 7.4-2 8.3 0 15 6.7 15 15s-6.7 15-15 15-15-6.6-15-14.9c0-2.9.8-5.5 2.2-7.8l1.8 1.8 1-6-6 1 1.8 1.8c-1.8 2.6-2.8 5.8-2.8 9.2 0 4.7 1.9 9 5 12v33c0 2.8 2.3 5 5 5h50c2.8 0 5-2.3 5-5v-50c0-2.8-2.3-5-5-5h-7v-3c0-1.1-.9-2-2-2h-2c-1.1 0-2 .9-2 2v3H33.2c-3.1-4.2-8.1-7-13.7-7zm32 4h2v8h-2v-8zM24.7 8.9l-5 7.6h-.1c-1.1 0-2 .9-2 2s.9 2 2 2c.2 0 .3 0 .5-.1l4.8 4.8 1.4-1.4-4.8-4.8c0-.2.1-.3.1-.5 0-.3-.1-.6-.2-.9l5-7.6-1.7-1.1zm9.8 1.6h15v3c0 1.1.9 2 2 2h2c1.1 0 2-.9 2-2v-3h7c1.7 0 3 1.3 3 3v7H36.4c.1-.7.1-1.3.1-2 0-2.9-.7-5.6-2-8zm1.5 12h29.5v41c0 1.7-1.3 3-3 3h-50c-1.7 0-3-1.3-3-3V32.2c2.8 2.1 6.3 3.3 10 3.3 8 0 14.7-5.5 16.5-13zm1.5 8c-.5 0-1 .5-1 1s.5 1 1 1 1-.5 1-1-.5-1-1-1zm4 0c-.5 0-1 .5-1 1s.5 1 1 1 1-.5 1-1-.5-1-1-1zm4 0c-.5 0-1 .5-1 1s.5 1 1 1 1-.5 1-1-.5-1-1-1zm4 0c-.5 0-1 .5-1 1s.5 1 1 1 1-.5 1-1-.5-1-1-1zm4 0c-.5 0-1 .5-1 1s.5 1 1 1 1-.5 1-1-.5-1-1-1zm-16 4c-.5 0-1 .5-1 1s.5 1 1 1 1-.5 1-1-.5-1-1-1zm8 0c-.5 0-1 .5-1 1s.5 1 1 1 1-.5 1-1-.5-1-1-1zm8 0c-.5 0-1 .5-1 1s.5 1 1 1 1-.5 1-1-.5-1-1-1zm-32 4c-.5 0-1 .5-1 1s.5 1 1 1 1-.5 1-1-.5-1-1-1zm4 0c-.5 0-1 .5-1 1s.5 1 1 1 1-.5 1-1-.5-1-1-1zm4 0c-.5 0-1 .5-1 1s.5 1 1 1 1-.5 1-1-.5-1-1-1zm4 0c-.5 0-1 .5-1 1s.5 1 1 1 1-.5 1-1-.5-1-1-1zm4 0c-.5 0-1 .5-1 1s.5 1 1 1 1-.5 1-1-.5-1-1-1zm4 0c-.5 0-1 .5-1 1s.5 1 1 1 1-.5 1-1-.5-1-1-1zm4 0c-.5 0-1 .5-1 1s.5 1 1 1 1-.5 1-1-.5-1-1-1zm4 0c-.5 0-1 .5-1 1s.5 1 1 1 1-.5 1-1-.5-1-1-1zm4 0c-.5 0-1 .5-1 1s.5 1 1 1 1-.5 1-1-.5-1-1-1zm-32 4c-.5 0-1 .5-1 1s.5 1 1 1 1-.5 1-1-.5-1-1-1zm8 0c-.5 0-1 .5-1 1s.5 1 1 1 1-.5 1-1-.5-1-1-1zm8 0c-.5 0-1 .5-1 1s.5 1 1 1 1-.5 1-1-.5-1-1-1zm8 0c-.5 0-1 .5-1 1s.5 1 1 1 1-.5 1-1-.5-1-1-1zm8 0c-.5 0-1 .5-1 1s.5 1 1 1 1-.5 1-1-.5-1-1-1zm-32 4c-.5 0-1 .5-1 1s.5 1 1 1 1-.5 1-1-.5-1-1-1zm4 0c-.5 0-1 .5-1 1s.5 1 1 1 1-.5 1-1-.5-1-1-1zm4 0c-.5 0-1 .5-1 1s.5 1 1 1 1-.5 1-1-.5-1-1-1zm4 0c-.5 0-1 .5-1 1s.5 1 1 1 1-.5 1-1-.5-1-1-1zm4 0c-.5 0-1 .5-1 1s.5 1 1 1 1-.5 1-1-.5-1-1-1zm4 0c-.5 0-1 .5-1 1s.5 1 1 1 1-.5 1-1-.5-1-1-1zm4 0c-.5 0-1 .5-1 1s.5 1 1 1 1-.5 1-1-.5-1-1-1zm4 0c-.5 0-1 .5-1 1s.5 1 1 1 1-.5 1-1-.5-1-1-1zm4 0c-.5 0-1 .5-1 1s.5 1 1 1 1-.5 1-1-.5-1-1-1zm-32 4c-.5 0-1 .5-1 1s.5 1 1 1 1-.5 1-1-.5-1-1-1zm8 0c-.5 0-1 .5-1 1s.5 1 1 1 1-.5 1-1-.5-1-1-1zm8 0c-.5 0-1 .5-1 1s.5 1 1 1 1-.5 1-1-.5-1-1-1zm8 0c-.5 0-1 .5-1 1s.5 1 1 1 1-.5 1-1-.5-1-1-1zm8 0c-.5 0-1 .5-1 1s.5 1 1 1 1-.5 1-1-.5-1-1-1zm-32 4c-.5 0-1 .5-1 1s.5 1 1 1 1-.5 1-1-.5-1-1-1zm4 0c-.5 0-1 .5-1 1s.5 1 1 1 1-.5 1-1-.5-1-1-1zm4 0c-.5 0-1 .5-1 1s.5 1 1 1 1-.5 1-1-.5-1-1-1zm4 0c-.5 0-1 .5-1 1s.5 1 1 1 1-.5 1-1-.5-1-1-1zm4 0c-.5 0-1 .5-1 1s.5 1 1 1 1-.5 1-1-.5-1-1-1zm4 0c-.5 0-1 .5-1 1s.5 1 1 1 1-.5 1-1-.5-1-1-1zm4 0c-.5 0-1 .5-1 1s.5 1 1 1 1-.5 1-1-.5-1-1-1zm4 0c-.5 0-1 .5-1 1s.5 1 1 1 1-.5 1-1-.5-1-1-1zm4 0c-.5 0-1 .5-1 1s.5 1 1 1 1-.5 1-1-.5-1-1-1z"/>
</svg>
