<svg xmlns="http://www.w3.org/2000/svg" width="20" height="20" viewBox="0 0 20 20">
    <path d="M9.94 0c-2.2.05-3.59.94-4.19 2.31-.57 1.31-.45 2.96-.04 4.67-.22.26-.4.62-.35 1.16v.03c.08.57.25.97.47 1.26.1.14.26.14.39.22a5.38 5.38 0 0 0 .72 2.02c.06.08.14.13.2.2v1.68c-.15.36-.5.65-1.06.94-.6.3-1.36.57-2.13.9-.77.35-1.55.77-2.18 1.41a4.11 4.11 0 0 0-1.14 2.7L.6 20h18.8l-.03-.5a4.07 4.07 0 0 0-1.14-2.7 6.7 6.7 0 0 0-2.2-1.4c-.78-.33-1.55-.6-2.14-.9-.57-.3-.92-.58-1.08-.94v-1.7c.05-.07.13-.11.19-.2a4.18 4.18 0 0 0 .73-2c.15-.07.33-.08.44-.23.23-.3.36-.72.41-1.3.05-.49-.1-.85-.32-1.12a8.6 8.6 0 0 0 .44-3.18 3.71 3.71 0 0 0-.63-1.9c-.36-.5-.95-.85-1.68-1.01-.5-.66-1.4-.92-2.43-.92h-.02zm.02.94h.01c.93 0 1.54.27 1.73.6l.12.2.23.04c.64.08 1 .33 1.26.7.26.36.4.87.45 1.44a8.38 8.38 0 0 1-.45 3.04l-.15.4.37.19c0 .01.15.17.13.51v.02c-.04.44-.16.69-.23.79-.08.1-.12.09-.1.09h-.43l-.04.42a4.36 4.36 0 0 1-.62 1.77c-.08.12-.18.19-.13.16l-.24.13v2.24s-.08.2-.42.39c-.34.18-.87.32-1.45.32-.6 0-1.11-.13-1.45-.3-.34-.18-.43-.36-.43-.4a.49.49 0 0 0-.04-.2v-2.04l-.24-.13c.05.02-.05-.05-.13-.17a4.33 4.33 0 0 1-.63-1.77l-.03-.42h-.39c-.02-.01-.06-.03-.1-.1-.08-.1-.2-.35-.27-.78v-.02-.01c0-.36.21-.56.18-.53l.26-.2L6.66 7c-.43-1.7-.5-3.25-.05-4.3C7.07 1.65 8 .98 9.96.94zM7.6 14.55c.15.14.32.26.52.35.5.27 1.15.41 1.87.41a4.1 4.1 0 0 0 1.89-.42c.17-.1.34-.2.48-.32.3.32.7.57 1.12.78.67.34 1.45.6 2.18.92.72.32 1.4.68 1.88 1.18.4.41.64.95.77 1.62H1.68c.13-.67.38-1.21.77-1.62.49-.5 1.16-.86 1.88-1.18.73-.32 1.5-.58 2.17-.92.42-.21.82-.47 1.11-.8z"/>
</svg>
